# xmcd
#
# Track frame offsets:
#	150
#	13561
#	27059
#	38909
#	55612
#	67823
#	76572
#	89676
#	102320
#	116852
#	127721
#	140308
#	151234
#	164812
#	181241
#	191460
#	201498
#	215689
#	230198
#	240340
#	250833
#	263129
#	274774
#	285671
#	294327
#	309030
#	334444
#	346074
#
# Disc length: 4790 seconds
#
# Revision: 6
# Processed by: cddbd v1.5.2PL0 Copyright (c) Steve Scherf et al.
# Submitted via: EZCDAudioConverter 2.1.7.1
#
DISCID=8912b41c
DTITLE=V/A - Instant Garage
DYEAR=2003
DGENRE=MOJO
TTITLE0=MC5 - Kick Out The Jams
TTITLE1=Electric Prunes - I Had Too Much To Dream (Last Night)
TTITLE2=The Sonics - Psycho
TTITLE3=New York Dolls - Personality Crisis
TTITLE4=The Readymen - Shortnin' Bread
TTITLE5=The Bush - To Die Alone
TTITLE6=Jonathan Richman and The Modern Lovers - She Cracked
TTITLE7=The Express - Wastin' My Time
TTITLE8=Gil Bateman - My Daddy Walked In Darkness
TTITLE9=Love - Seven and Seven Is
TTITLE10=Rocky and The Riddlers - Flash and Crash
TTITLE11=She - Outta Reach
TTITLE12=The Ramones - I Wanna Be Your Boyfriend [Demo]
TTITLE13=The Kinks - Milk Cow Blues
TTITLE14=Little John and The Monks - Black Winds
TTITLE15=Alarm Clocks - No Reason To Complain
TTITLE16=Count Five - Psychotic Reaction
TTITLE17=Artesians - Trick Bag
TTITLE18=Dean Carter - Jailhouse Rock
TTITLE19=The Iguanas - Again and Again
TTITLE20=The Nazz - Open My Eyes
TTITLE21=The Wailers - Dirty Robber
TTITLE22=Paul Revere and The Raiders - Just Like Me
TTITLE23=Bunker Hill - The Girl Can't Dance
TTITLE24=Brave New World - Train Kept A Rollin'
TTITLE25=Amboy Dukes - Baby Please Don't Go
TTITLE26=The Rats - Rat's Revenge (Part 2)
TTITLE27=Mouse and The Traps - Sometimes You Just Can't Win
EXTD=
EXTT0=
EXTT1=
EXTT2=
EXTT3=
EXTT4=
EXTT5=
EXTT6=
EXTT7=
EXTT8=
EXTT9=
EXTT10=
EXTT11=
EXTT12=
EXTT13=
EXTT14=
EXTT15=
EXTT16=
EXTT17=
EXTT18=
EXTT19=
EXTT20=
EXTT21=
EXTT22=
EXTT23=
EXTT24=
EXTT25=
EXTT26=
EXTT27=
PLAYORDER=
